# xmcd CD database file
#
# Track frame offsets:
#	150
#	23935
#	46287
#
# Disc length: 931 seconds
#
# Revision: 0
# Processed by: cddbd v1.5.1PL0 Copyright (c) Steve Scherf et al.
# Submitted via: CDex 1.51
#
DISCID=1d03a103
DTITLE=Zwei - Dragon
DYEAR=2005
DGENRE=JPop
TTITLE0=Dragon
TTITLE1=太陽が見てる場所
TTITLE2=Dragon -instrumental-
EXTD=YEAR: 2005
EXTT0=
EXTT1=
EXTT2=
PLAYORDER=
